<svg width="30" height="28" fill="none" xmlns="http://www.w3.org/2000/svg"><path d="M29.875 4.25c-.125-.125-.25-.25-.5-.25H5.625L5 .75c0-.25-.375-.5-.625-.5H.625C.25.25 0 .5 0 .875s.25.625.625.625h3.25l3 15.25c.375 2 2.25 3.5 4.25 3.5H25.5c.375 0 .625-.25.625-.625S25.875 19 25.5 19H11.25c-1 0-2-.5-2.5-1.375l18.25-2.5c.25 0 .5-.25.5-.5l2.5-10s0-.25-.125-.375zm-3.5 9.75l-18.25 2.375-2.25-11.25H28.5L26.375 14zm-15.75 7.5A3.095 3.095 0 007.5 24.625a3.095 3.095 0 003.125 3.125 3.095 3.095 0 003.125-3.125 3.095 3.095 0 00-3.125-3.125zm0 5c-1 0-1.875-.875-1.875-1.875s.875-1.875 1.875-1.875 1.875.875 1.875 1.875-.875 1.875-1.875 1.875zm12.5-5A3.095 3.095 0 0020 24.625a3.095 3.095 0 003.125 3.125 3.095 3.095 0 003.125-3.125 3.095 3.095 0 00-3.125-3.125zm0 5c-1 0-1.875-.875-1.875-1.875s.875-1.875 1.875-1.875S25 23.625 25 24.625s-.875 1.875-1.875 1.875z"/></svg>