<svg width="20" height="20" fill="none" xmlns="http://www.w3.org/2000/svg"><path d="M16.667 11.011V4.583a.405.405 0 00-.066-.21l.006-.004-2.5-4.167A.417.417 0 0013.75 0H2.917a.417.417 0 00-.358.202L.06 4.37l.006.003a.405.405 0 00-.066.21V16.25c0 .23.186.417.417.417H11.01A4.588 4.588 0 0015.417 20 4.589 4.589 0 0020 15.417a4.588 4.588 0 00-3.333-4.406zM13.514.833l2 3.334h-4.756L10.092.833h3.422zm-6.09 0h1.818l.674 3.334H6.758L7.425.833zM10 5v1.667H6.665L6.66 5H10zM3.153.833h3.423l-.66 3.334H1.153l2-3.334zm7.701 15H.835V5h5v2.083c0 .23.186.417.416.417h4.167c.23 0 .416-.186.416-.417L10.827 5h5.006v5.854a4.59 4.59 0 00-.416-.02 4.588 4.588 0 00-4.584 4.583c0 .14.009.279.021.416zm4.563 3.334a3.754 3.754 0 01-3.75-3.75 3.754 3.754 0 013.75-3.75 3.754 3.754 0 013.75 3.75 3.754 3.754 0 01-3.75 3.75z" fill="#219653"/><path d="M17.205 13.872l-2.622 2.622-.955-.955a.416.416 0 10-.59.589l1.25 1.25a.415.415 0 00.59 0l2.917-2.917a.416.416 0 10-.59-.589z" fill="#219653"/></svg>