<svg width="20" height="20" fill="none" xmlns="http://www.w3.org/2000/svg"><g clip-path="url(#clip0)" fill="#219653"><path d="M19 13.205h-1.92l-.539 4.064a1.008 1.008 0 01-1.125.86L.87 16.2a1 1 0 01-.86-1.125l1.228-9.257a1 1 0 011.121-.863l.964.127V2.864a1 1 0 011-1H19a1 1 0 011 1v9.34a1 1 0 01-1 1zm-2.593 0h-2.604l2.56.339.044-.34zM.67 15.165a.327.327 0 00.066.244.334.334 0 00.222.13l14.545 1.928a.338.338 0 00.377-.287l.132-.993L.802 14.17l-.132.995zm2.652-9.41l-1.05-.138a.334.334 0 00-.374.287l-.744 5.623 2.168.286V5.755zm.044 6.737l-2.301-.304-.175 1.32 15.21 2.017.1-.764.074-.556-7.548-1H4.323a1 1 0 01-.957-.713zm15.967-9.628a.334.334 0 00-.334-.333H4.323a.334.334 0 00-.334.333v9.33l.002.01c0 .184.15.333.333.333H19a.334.334 0 00.334-.333v-9.34z"/><path d="M14.645 8.194c.134.099.253.217.352.351a1.665 1.665 0 111.334 2.658 1.662 1.662 0 01-1.334-.677 1.668 1.668 0 11-.352-2.332zm1.686 2.342a1 1 0 100-2.001 1 1 0 000 2.001zm-2.669 0a1 1 0 100-2.001 1 1 0 000 2.001zm-7.672.334h-.666v-.667h.667v.667zm4.67 0H6.659v-.667h4.003v.667zm0-1.335H5.325v-.667h5.337v.667zm7.005-3.002H5.657a.334.334 0 01-.333-.333V4.199c0-.185.149-.334.333-.334h12.008c.184 0 .334.15.334.334v2c0 .185-.15.334-.334.334zm-.333-2H5.99v1.333h11.34V4.532z"/></g><defs><clipPath id="clip0"><path fill="#fff" transform="matrix(1 0 0 -1 0 20)" d="M0 0h20v20H0z"/></clipPath></defs></svg>