<svg width="22" height="22" fill="none" xmlns="http://www.w3.org/2000/svg"><path opacity=".5" d="M21.444 3.084a4.144 4.144 0 00-1.004-1.542A4.141 4.141 0 0018.9.538c-.475-.182-1.186-.401-2.49-.465C14.995.018 14.576 0 10.99 0 7.415 0 6.987.01 5.573.082c-1.304.055-2.016.274-2.49.456A4.141 4.141 0 001.54 1.542 4.144 4.144 0 00.538 3.084C.356 3.56.137 4.27.073 5.575.018 6.99 0 7.418 0 10.995c0 3.587.018 4.006.082 5.42.064 1.305.274 2.017.465 2.492a4.144 4.144 0 001.004 1.542c.428.447.957.784 1.541 1.003.474.183 1.186.402 2.49.466C6.996 21.982 7.415 22 11 22s4.004-.01 5.418-.082c1.304-.064 2.016-.274 2.49-.465a4.428 4.428 0 002.545-2.546c.182-.475.401-1.187.465-2.491.064-1.415.082-1.844.082-5.42 0-3.587-.01-4.006-.082-5.42-.073-1.306-.292-2.017-.474-2.492zm-10.453 14.8a6.888 6.888 0 01-6.887-6.889 6.888 6.888 0 1113.773 0 6.888 6.888 0 01-6.886 6.89zm7.16-12.436a1.607 1.607 0 010-3.212 1.607 1.607 0 010 3.212z" fill="#DDE8F0"/></svg>