<svg width="30" height="26" fill="none" xmlns="http://www.w3.org/2000/svg"><path d="M29.555 15.632l-3.422-7.33 1.477.424a.61.61 0 10.337-1.174L17.676 4.604l.003-.132a2.678 2.678 0 00-5.017-1.307L2.39.218a.611.611 0 00-.337 1.175l2.028.582L.409 9.838a.611.611 0 00-.409.577 4.9 4.9 0 008.371 3.458 4.843 4.843 0 001.462-3.458.611.611 0 00-.445-.588L5.976 2.519l6.348 1.821a2.683 2.683 0 002.065 2.74v14.86c-2.096 0-3.858-.032-4.155.03a2.463 2.463 0 00-1.956 2.395v.855c.01.345.29.621.635.626h12.174a.645.645 0 00.635-.626v-.855a2.463 2.463 0 00-1.955-2.395c-.206-.062-2.15-.03-4.156-.03V7.08a2.689 2.689 0 001.727-1.301l6.917 1.985-3.679 7.88a.611.611 0 00-.41.576 4.9 4.9 0 008.372 3.459A4.844 4.844 0 0030 16.219a.611.611 0 00-.445-.587zM4.9 3.076l3.127 6.698H1.775L4.9 3.076zm0 10.988a3.654 3.654 0 01-3.628-3.068h7.284A3.707 3.707 0 014.9 14.064zm15.6 10.3v.26h-11v-.26c0-.673.572-1.207 1.246-1.207h8.506c.674 0 1.247.534 1.247 1.208zM15 5.93a1.458 1.458 0 111.415-1.115.608.608 0 00-.034.119A1.459 1.459 0 0115 5.929zm13.194 9.65H21.94l3.127-6.697 3.127 6.697zm-3.127 4.29a3.654 3.654 0 01-3.628-3.067h7.284a3.708 3.708 0 01-3.656 3.067z" fill="#33485D"/></svg>