<svg width="30" height="24" fill="none" xmlns="http://www.w3.org/2000/svg"><path d="M29.536 4.826C28.546 2.14 26.174.382 23.348.24l-.033-.001h-.414c-3.568 0-6.633 2.197-7.912 5.309-1.28-3.113-4.344-5.31-7.912-5.31H6.63C3.81.383 1.446 2.142.46 4.83c-1.017 2.775-.324 5.742 1.807 7.74l11.21 10.603a2.3 2.3 0 001.539.59c.554 0 1.104-.2 1.526-.6l1.704-1.608a2.3 2.3 0 00.682-1.588 2.201 2.201 0 00-.65-1.612.638.638 0 00-.902.902.972.972 0 01-.018 1.382l-1.692 1.596c-.362.343-.95.337-1.325 0L3.142 11.64C1.39 9.996.823 7.554 1.66 5.268c.804-2.194 2.727-3.632 5.02-3.754h.398c4.01 0 7.274 3.263 7.274 7.274a.638.638 0 001.276 0c0-4.011 3.263-7.274 7.274-7.274h.398c2.3.123 4.23 1.56 5.04 3.754.84 2.278.275 4.72-1.487 6.387l-3.573 3.573a2.23 2.23 0 00-.666 1.583c0 .593.237 1.155.666 1.584a.638.638 0 10.902-.902.962.962 0 01-.291-.682c0-.251.103-.493.291-.681l3.56-3.56c2.127-2.012 2.814-4.979 1.795-7.744z" fill="#33485D"/></svg>