<svg width="84" height="30" fill="none" xmlns="http://www.w3.org/2000/svg"><g opacity=".5" fill-rule="evenodd" clip-rule="evenodd" fill="#fff" clip-path="url(#clip0)"><path d="M36.649 5.09h1.76c.642 0 .966.317.966 1.035V8.67h3.45V6.125c0-.718.318-1.036 1.041-1.036h1.684v1.672h-.719l-.082.082v7.162h-1.925v-3.58h-3.45v3.58H37.45V6.843s0-.082-.082-.082h-.72V5.09zm13.952-.16l.044.005v1.836l-.044-.01c-1.442 0-2.566 1.196-2.566 2.709 0 1.59 1.124 2.863 2.566 2.863l.044-.01v1.836l-.044.005c-2.566 0-4.65-2.068-4.65-4.694 0-2.55 2.084-4.54 4.65-4.54z"/><path d="M50.645 4.935l.892.087c2.118.414 3.715 2.217 3.715 4.448 0 2.294-1.597 4.169-3.715 4.598l-.892.091v-1.836l.98-.212c.945-.434 1.625-1.45 1.625-2.641 0-1.137-.68-2.092-1.626-2.497l-.98-.202V4.935zm5.007.155h3.971v1.67h-1.245v1.832h1.245v1.59h-1.245v1.99c0 .082 0 .082.082.082h1.163v1.75h-2.205c-.642 0-.96-.318-.96-1.036V6.76h-.806V5.09z"/><path d="M59.623 5.09h.039c1.765 0 2.807.953 2.807 2.39 0 .872-.4 1.43-.8 1.83.723.319 1.2 1.114 1.2 1.986 0 1.673-1.282 2.709-3.125 2.709h-.121v-1.75h.198c.642 0 1.047-.4 1.047-1.036s-.406-1.036-1.047-1.036h-.198v-1.59h.039c.564 0 .883-.4.883-.954 0-.56-.319-.878-.883-.878h-.039V5.09zm6.937 0h.96v2.549a1.525 1.525 0 00-.159.636l-.641 1.831h.8v1.667h-1.278l-.564 1.437c-.16.554-.478.795-1.12.795h-1.206v-1.75h.4c.165 0 .165 0 .242-.082L66.56 5.09zm.96 0h.965l2.567 7.083c.077.082.077.082.236.082h.324v1.75h-1.125c-.641 0-.96-.241-1.124-.877l-.56-1.355H67.52v-1.667h.801l-.637-1.831c0-.241-.082-.477-.164-.636v-2.55zM36.649 16.55h6.976c.642 0 1.042.317 1.042 1.036v6.048c0 .077 0 .077.082.077h.642v1.754h-1.684c-.724 0-1.042-.318-1.042-1.036v-6.125s0-.082-.082-.082h-3.208v7.243H37.45v-7.243h-.801v-1.673zm13.793-.16l.039.005v1.836l-.039-.01c-1.447 0-2.566 1.196-2.566 2.71 0 1.59 1.119 2.862 2.566 2.862l.039-.01v1.836l-.039.005c-2.566 0-4.574-2.072-4.574-4.694 0-2.55 2.008-4.54 4.574-4.54z"/><path d="M50.48 16.395l.922.087c2.157.414 3.69 2.217 3.69 4.448 0 2.294-1.533 4.169-3.69 4.598l-.922.091v-1.836l1.018-.212c.96-.434 1.593-1.45 1.593-2.64 0-1.138-.633-2.093-1.593-2.497l-1.017-.203v-1.836zm5.013.155h1.766c.642 0 .96.317.96 1.036v6.048c0 .077 0 .077.082.077h2.325v-7.162h1.925v7.162h2.326c.082 0 .082 0 .082-.077v-6.048c0-.718.318-1.037.96-1.037h1.766v1.673h-.724c-.082 0-.082.082-.082.082v6.125c0 .718-.319 1.036-.96 1.036h-8.583c-.719 0-1.042-.318-1.042-1.036v-6.125s0-.082-.077-.082h-.724v-1.673zm13.711 0h6.016c.724 0 .965.317.965.954v1.513h-1.766v-.713c0-.082 0-.082-.082-.082h-1.12v7.243h-1.929v-7.243h-1.12c-.081 0-.081 0-.081.082v.713H68.32v-1.513c0-.637.241-.955.883-.955zm9.466 0h.96v2.549c-.082.159-.16.395-.16.636l-.64 1.831h.8v1.668h-1.284l-.559 1.354c-.16.636-.482.877-1.124.877h-1.201v-1.754h.4c.164 0 .164 0 .241-.077l2.567-7.085z"/><path d="M79.63 16.55h.96l2.571 7.084c.077.077.077.077.241.077h.319v1.754h-1.124c-.642 0-.96-.24-1.124-.877l-.56-1.354H79.63v-1.668h.8l-.641-1.831c0-.241-.077-.477-.16-.636v-2.55zM24.289 8.882c.091-.029.212.029.333.188l5.451 5.33c.319.318.319.8 0 1.036l-5.451 5.412c-.121.16-.242.198-.333.15-.092-.049-.15-.188-.15-.39V9.227c0-.197.058-.317.15-.346zM14.963 0h.386l.371.154 5.611 5.571c.241.318.16.56-.241.56h-2.325c-.4 0-.72.317-.72.717v4.135c0 .4-.323.718-.805.718h-4.086a.718.718 0 01-.724-.718V7.002c0-.4-.318-.718-.724-.718H9.222c-.4 0-.483-.24-.241-.559l5.615-5.57.367-.155zm-8.79 8.761c.101.049.164.188.164.39v11.615c0 .203-.063.323-.164.362-.097.038-.237 0-.4-.12L.238 15.435c-.319-.236-.319-.718 0-1.036l5.533-5.49c.164-.158.304-.197.4-.149zm6.98 9.143h4.087c.482 0 .806.318.806.718v4.375c0 .478.318.796.718.796h2.166c.401 0 .56.236.242.477l-5.452 5.489a.807.807 0 01-.564.24.797.797 0 01-.56-.24l-5.452-5.49c-.323-.24-.164-.476.237-.476h2.325c.405 0 .724-.318.724-.796v-4.375c0-.4.323-.718.723-.718z"/></g><defs><clipPath id="clip0"><path fill="#fff" d="M0 0h83.721v30H0z"/></clipPath></defs></svg>