<svg width="30" height="30" fill="none" xmlns="http://www.w3.org/2000/svg"><path d="M29.213 23.143l-6.072-4.049a1.772 1.772 0 00-2.373.385l-1.77 2.275a.756.756 0 01-.969.204l-.336-.186c-1.115-.608-2.503-1.365-5.3-4.162-2.795-2.797-3.554-4.186-4.162-5.299l-.184-.336a.757.757 0 01.2-.973l2.273-1.769c.727-.57.895-1.602.386-2.373L6.856.788A1.763 1.763 0 004.48.253L1.94 1.78A3.582 3.582 0 00.307 3.9C-.607 7.23.081 12.98 8.55 21.451 15.288 28.187 20.304 30 23.751 30c.794.003 1.584-.1 2.35-.307a3.579 3.579 0 002.12-1.633l1.526-2.538a1.763 1.763 0 00-.534-2.378zm-.327 1.865l-1.523 2.54a2.586 2.586 0 01-1.525 1.181c-3.076.844-8.449.145-16.58-7.986C1.126 12.61.428 7.239 1.272 4.163a2.588 2.588 0 011.183-1.527l2.539-1.523a.765.765 0 011.031.232l2.2 3.302 1.846 2.77a.77.77 0 01-.167 1.029l-2.273 1.768a1.75 1.75 0 00-.463 2.246l.18.328c.64 1.172 1.433 2.63 4.334 5.53 2.9 2.899 4.357 3.693 5.528 4.332l.329.18a1.75 1.75 0 002.245-.462l1.769-2.274a.77.77 0 011.03-.167l6.071 4.05c.34.226.443.68.232 1.031zM17 5.003a8.508 8.508 0 018.498 8.498.5.5 0 101 0 9.509 9.509 0 00-9.499-9.498.5.5 0 100 1z" fill="#33485D"/><path d="M17 8.002a5.506 5.506 0 015.498 5.5.5.5 0 101 0A6.507 6.507 0 0017 7.001a.5.5 0 100 1z" fill="#33485D"/><path d="M17 11.002a2.503 2.503 0 012.499 2.5.5.5 0 001 0 3.503 3.503 0 00-3.5-3.5.5.5 0 100 1z" fill="#33485D"/></svg>