<svg width="20" height="20" fill="none" xmlns="http://www.w3.org/2000/svg"><path d="M10.073 11.98l8.201-9.002 1.083.987-9.209 10.108L5.128 9.3l1.009-1.06 3.936 3.741zm8.715-5.24l-1.142 1.258c.166.637.254 1.304.254 1.992 0 4.362-3.548 7.91-7.91 7.91-4.361 0-7.91-3.548-7.91-7.91 0-4.361 3.549-7.91 7.91-7.91 2.02 0 3.867.762 5.266 2.013l.988-1.087A9.307 9.307 0 009.99.616 9.313 9.313 0 003.361 3.36 9.313 9.313 0 00.615 9.99a9.31 9.31 0 002.746 6.628 9.313 9.313 0 006.63 2.746 9.313 9.313 0 006.628-2.746 9.313 9.313 0 002.746-6.629 9.377 9.377 0 00-.576-3.25z" fill="#259756"/></svg>