<svg width="18" height="20" fill="none" xmlns="http://www.w3.org/2000/svg"><path d="M17.496 5.426v-.015a21.13 21.13 0 01-.019-.622 2.12 2.12 0 00-1.996-2.076c-2.3-.128-4.078-.878-5.598-2.36L9.87.341a1.28 1.28 0 00-1.74 0l-.013.012C6.597 1.835 4.82 2.585 2.52 2.713A2.12 2.12 0 00.523 4.79c-.003.224-.009.427-.018.62v.037c-.045 2.345-.1 5.263.875 7.912a10.071 10.071 0 002.417 3.763c1.214 1.186 2.805 2.127 4.728 2.797a1.439 1.439 0 00.951 0c1.92-.672 3.51-1.613 4.723-2.798a10.088 10.088 0 002.417-3.765c.98-2.657.924-5.58.88-7.93zm-1.981 7.524c-1.03 2.792-3.132 4.71-6.426 5.861a.265.265 0 01-.177 0c-3.298-1.15-5.401-3.066-6.43-5.858-.9-2.441-.85-5.12-.804-7.483v-.014c.01-.203.015-.415.019-.65a.942.942 0 01.888-.921c1.3-.073 2.444-.324 3.495-.769a9.143 9.143 0 002.848-1.913.108.108 0 01.145 0 9.147 9.147 0 002.848 1.913c1.05.445 2.194.696 3.495.769.49.027.88.432.888.922.003.235.01.448.018.65.045 2.365.095 5.046-.807 7.493z" fill="#219653"/><path d="M9 5.016A4.99 4.99 0 004.016 10 4.99 4.99 0 009 14.985 4.99 4.99 0 0013.984 10 4.99 4.99 0 009 5.016zm0 8.795a3.815 3.815 0 01-3.81-3.81C5.19 7.898 6.898 6.19 9 6.19s3.81 1.709 3.81 3.81A3.814 3.814 0 019 13.811z" fill="#219653"/><path d="M10.432 8.453l-2.315 2.315-.628-.628a.587.587 0 00-.83.83l1.044 1.043a.585.585 0 00.83 0l2.73-2.73a.587.587 0 00-.83-.83z" fill="#219653"/></svg>