<svg width="22" height="18" fill="none" xmlns="http://www.w3.org/2000/svg"><path opacity=".5" d="M22 2.116a9 9 0 01-2.592.711A4.527 4.527 0 0021.392.33a9.04 9.04 0 01-2.866 1.095 4.514 4.514 0 00-7.691 4.117A12.814 12.814 0 011.532.826a4.492 4.492 0 00-.612 2.27c0 1.565.797 2.947 2.008 3.756a4.496 4.496 0 01-2.044-.564v.056a4.516 4.516 0 003.62 4.426 4.518 4.518 0 01-2.038.077 4.518 4.518 0 004.216 3.135 9.057 9.057 0 01-5.605 1.932c-.365 0-.724-.021-1.077-.063a12.776 12.776 0 006.919 2.028C15.22 17.879 19.76 11 19.76 5.037c0-.196-.005-.39-.013-.584A9.173 9.173 0 0022 2.116z" fill="#DDE8F0"/></svg>