<svg width="114" height="41" fill="none" xmlns="http://www.w3.org/2000/svg"><g clip-path="url(#clip0)" fill-rule="evenodd" clip-rule="evenodd" fill="#fff"><path d="M111.763 2.453a7.437 7.437 0 00-10.488 0l-24.89 25.336a7.86 7.86 0 000 10.933 7.41 7.41 0 005.33 2.269 7.395 7.395 0 005.332-2.269l24.716-25.3a7.895 7.895 0 000-10.969z"/><path d="M51.704 2.453A7.445 7.445 0 0157.034.2a7.43 7.43 0 015.332 2.253l24.716 25.336a7.86 7.86 0 010 10.933 7.41 7.41 0 01-5.331 2.269 7.396 7.396 0 01-5.332-2.269l-24.715-25.3a7.86 7.86 0 010-10.969z"/><path d="M62.401 2.453A7.41 7.41 0 0057.07.185a7.396 7.396 0 00-5.331 2.268L27.023 27.789a7.86 7.86 0 000 10.933 7.445 7.445 0 005.331 2.253 7.43 7.43 0 005.331-2.253l24.716-25.336a7.86 7.86 0 000-10.933z"/><path d="M2.202 2.278A7.446 7.446 0 017.534.025a7.43 7.43 0 015.33 2.253L37.58 27.614a7.86 7.86 0 010 10.933 7.445 7.445 0 01-5.33 2.253 7.43 7.43 0 01-5.332-2.253L2.202 13.211a7.86 7.86 0 010-10.933z"/></g><defs><clipPath id="clip0"><path fill="#fff" d="M0 0h114v41H0z"/></clipPath></defs></svg>