<svg width="26" height="18" fill="none" xmlns="http://www.w3.org/2000/svg"><path opacity=".5" d="M24.895 1.722C24.19.468 23.425.237 21.866.15 20.309.044 16.395 0 13.003 0 9.605 0 5.69.044 4.134.148 2.579.238 1.812.466 1.1 1.723.374 2.974 0 5.133 0 8.932v.014c0 3.783.374 5.957 1.1 7.197.712 1.254 1.477 1.482 3.032 1.587 1.557.091 5.473.145 8.871.145 3.392 0 7.306-.054 8.865-.143 1.558-.106 2.323-.333 3.029-1.588C25.63 14.904 26 12.73 26 8.947v-.013c0-3.8-.37-5.959-1.105-7.211zM9.75 13.813v-9.75l8.125 4.875-8.125 4.876z" fill="#DDE8F0"/></svg>